<svg width="114" height="114" viewBox="0 0 114 114" fill="none" xmlns="http://www.w3.org/2000/svg">
<g clip-path="url(#clip0_1981_5)">
<path d="M97.8788 57.0215C94.1385 47.9525 88.3905 39.1368 81.6892 32.1974C74.7904 25.0535 66.1923 18.9683 57.4768 15.0558C54.3484 13.6675 52.3387 14.8501 51.5025 16.4179L50.8 17.9803C50.6626 18.2864 50.5883 18.6171 50.5814 18.9526C50.5745 19.2881 50.6352 19.6215 50.7599 19.933C50.8846 20.2445 51.0707 20.5278 51.3072 20.7658C51.5437 21.0039 51.8256 21.1919 52.1363 21.3187C53.8436 22.0159 55.9183 22.8643 56.3909 23.0748C63.2213 26.0384 70.1236 31.0176 76.3419 37.4568C82.5797 43.9163 87.0355 50.6087 89.9644 57.9176C90.2419 58.6098 90.8579 60.2869 91.5169 62.1029C91.6312 62.4184 91.808 62.7076 92.0365 62.9533C92.265 63.199 92.5406 63.3962 92.847 63.5331C93.1533 63.67 93.4841 63.7439 93.8195 63.7503C94.155 63.7566 94.4884 63.6954 94.7997 63.5703L96.2285 62.9985L96.3666 62.939C97.8886 62.2186 99.1973 60.2358 97.8788 57.0215Z" fill="#FF7631"/>
<path d="M86.1268 61.2796C83.2474 54.1749 78.3537 46.7388 72.6966 40.8807C66.9843 34.9732 60.2251 30.1773 52.7625 26.7366C52.6813 26.6998 52.44 26.6005 52.0855 26.4584C51.7791 26.3355 51.4514 26.2745 51.1213 26.2789C50.7913 26.2833 50.4653 26.353 50.1623 26.4841C49.8593 26.6151 49.5853 26.8049 49.356 27.0424C49.1267 27.2799 48.9468 27.5605 48.8265 27.8679C48.2817 29.2629 47.5358 31.1604 46.6998 33.2885C42.1714 44.81 33.7605 66.2409 30.286 75.689C29.9599 76.5683 29.8898 77.5221 30.0838 78.4397C30.2779 79.3573 30.7281 80.201 31.3823 80.873C32.0322 81.5514 32.8615 82.0311 33.7735 82.2564C34.6856 82.4816 35.6428 82.4431 36.5338 82.1453L36.5549 82.138L84.9035 65.2717C85.2209 65.1624 85.513 64.9901 85.7622 64.7651C86.0113 64.54 86.2124 64.267 86.3534 63.9623C86.4943 63.6575 86.5722 63.3275 86.5824 62.9919C86.5925 62.6563 86.5347 62.3221 86.4124 62.0095C86.2739 61.6523 86.1755 61.402 86.1342 61.3007L86.1268 61.2796ZM53.443 46.1195C52.6906 45.4357 52.1647 44.5388 51.9351 43.5484C51.7056 42.558 51.7834 41.5211 52.1583 40.5761C52.5331 39.6311 53.1871 38.8227 54.0331 38.2589C54.879 37.6951 55.8768 37.4025 56.8933 37.4203C57.9098 37.438 58.8967 37.7652 59.7225 38.3582C60.5483 38.9512 61.1737 39.7819 61.5153 40.7394C61.8569 41.697 61.8985 42.7359 61.6346 43.7177C61.3706 44.6995 60.8137 45.5775 60.0379 46.2346C59.1119 47.0191 57.9322 47.4399 56.7188 47.4188C55.5053 47.3976 54.341 46.9358 53.443 46.1195ZM46.0027 67.206C45.2504 66.5222 44.7244 65.6253 44.4949 64.6349C44.2654 63.6445 44.3432 62.6077 44.718 61.6627C45.0929 60.7176 45.7469 59.9093 46.5929 59.3455C47.4388 58.7816 48.4366 58.4891 49.4531 58.5068C50.4696 58.5246 51.4565 58.8518 52.2823 59.4448C53.1081 60.0378 53.7335 60.8684 54.0751 61.826C54.4167 62.7835 54.4583 63.8224 54.1944 64.8042C53.9304 65.786 53.3734 66.664 52.5977 67.3212C51.6717 68.1056 50.492 68.5265 49.2786 68.5053C48.0651 68.4841 46.9008 68.0223 46.0027 67.206ZM65.5378 62.2429C64.7855 61.5591 64.2595 60.6622 64.0299 59.6718C63.8004 58.6814 63.8783 57.6446 64.2531 56.6995C64.6279 55.7545 65.2819 54.9462 66.1279 54.3823C66.9739 53.8185 67.9716 53.526 68.9881 53.5437C70.0046 53.5615 70.9915 53.8887 71.8173 54.4817C72.6431 55.0747 73.2685 55.9053 73.6101 56.8629C73.9517 57.8204 73.9933 58.8593 73.7294 59.8411C73.4654 60.8229 72.9085 61.7009 72.1327 62.358C71.2067 63.1425 70.027 63.5634 68.8136 63.5422C67.6002 63.521 66.4358 63.0592 65.5378 62.2429Z" fill="#FF7631"/>
</g>
<defs>
<clipPath id="clip0_1981_5">
<rect width="80" height="80" fill="white" transform="translate(57.5469) rotate(46)"/>
</clipPath>
</defs>
</svg>
